<svg version="1.1" id="Ebene_1" height="68" width="68" xmlns="http://www.w3.org/2000/svg" x="0" y="0" viewBox="0 0 340.2 340.2" style="enable-background:new 0 0 340.2 340.2" xml:space="preserve"><style>.st0{fill:#2f9cff}</style><path class="st0" d="M0 340.1V0h340.2v340.2H0v-.1zm331.7-8.5V8.5H8.6v323.1h323.1z"/><path class="st0" d="M144.4 320.3v-103l-13 102.9h-14.1l-14-104.1v104.1H79.4V154.5h33.9l11 89.2 10.3-89.1h33.3v165.7h-23.5zM21.3 320.3V154.6h46.6v32.1H48.4v33h15.9v29.2H48.4v41.8h19.5v29.7H21.3v-.1zM231.5 154.5h-41.9l-12.5 165.8h25.3l2.6-34h11.9l2.3 34h26.2l-13.9-165.8zm-25 111.5 4.4-84.4 4.4 84.4h-8.8zM318.8 232.6v87.7h-16.9l-.4-7.2-.1.2c-4.7 5.4-11.5 8.2-19.2 8.2-11.9 0-29.2-6.2-29.2-27.7V178.3c0-21.5 17.3-27.7 32.8-27.7 15.7 0 33 6.2 33 27.7v34.9h-25.7v-30c0-8.3-2.4-9.9-6.5-9.9-4.5 0-6.7 1.6-6.7 9.9v105.7c0 8.3 2.2 9.9 6.7 9.9 4 0 6.5-1.6 6.5-9.9v-33.8h-5.9v-22.5h31.6z"/></svg>
