<?xml version="1.0" encoding="UTF-8" standalone="no"?>
<svg
   viewBox="0 0 209.7095 30.000006"
   version="1.1"
   id="svg3"
   width="209.7095"
   height="30.000006"
   xmlns:xlink="http://www.w3.org/1999/xlink"
   xmlns="http://www.w3.org/2000/svg"
   xmlns:svg="http://www.w3.org/2000/svg">
  <defs
     id="defs3">
    <color-profile
       name="ACES-CG-Linear-Academy-Color-Encoding-System-AP1"
       xlink:href="file:///System/Library/ColorSync/Profiles/ACESCG%20Linear.icc"
       id="color-profile2" />
  </defs>
  <path
     id="path3"
     d="m 182.96418,29.905518 c -0.98571,0.03102 -1.97142,-0.126915 -2.92611,-0.380746 a 9.7795431,9.7795431 0 0 1 -2.79778,-1.298768 12.941149,12.941149 0 0 1 -3.56209,-3.516969 8.3679609,8.3679609 0 0 1 -1.14506,-2.407164 c -0.60496,-1.869888 -0.66842,-3.736956 -0.28627,-5.639278 0.25384,-1.171853 0.69945,-2.280248 1.33544,-3.326596 0.69944,-1.139419 1.52721,-2.153333 2.57638,-3.009307 a 9.6371157,9.6371157 0 0 1 2.63984,-1.5511894 c 1.6217,-0.6345774 3.30686,-0.7925167 5.02445,-0.7290589 a 12.358748,12.358748 0 0 1 2.67086,0.4117702 c 1.27198,0.3807465 2.41704,0.9814797 3.43518,1.8050201 a 10.859735,10.859735 0 0 1 2.60741,3.168657 c 0.34972,0.665601 0.69944,1.362226 0.98571,2.058851 0.28626,0.729059 0.44561,1.520165 0.44561,2.312682 0,0.253831 -0.0634,0.317289 -0.31728,0.348313 -0.73188,0.157939 -1.49479,0.317288 -2.22667,0.475227 -0.66842,0.126916 -1.30441,0.284855 -1.97142,0.411771 -0.66842,0.157939 -1.33684,0.284854 -2.00385,0.442794 -0.66842,0.159349 -1.30441,0.286265 -1.97142,0.444204 -0.70086,0.157939 -1.43133,0.317289 -2.13077,0.475228 -0.63599,0.126915 -1.27198,0.284855 -1.90937,0.41177 l -0.95328,0.190373 c -0.0635,0 -0.12692,0.06346 -0.12692,0.09448 0.031,0.06346 0.0635,0.157939 0.12692,0.190373 0.31729,0.253831 0.66701,0.507662 0.98571,0.761493 0.60496,0.473818 1.27197,0.506252 1.97142,0.442794 0.95469,-0.09589 1.68657,-0.57112 2.2591,-1.331202 0.28485,-0.380747 0.28485,-0.380747 0.69944,-0.09448 l 2.3846,1.520166 c 1.04917,0.665601 2.13077,1.362226 3.17994,2.027827 0.34972,0.221397 0.34972,0.221397 0.0635,0.538686 -0.69945,0.727648 -1.33544,1.487731 -2.0659,2.185766 -0.4146,0.411771 -0.8588,0.760083 -1.36787,1.044938 a 11.267275,11.267275 0 0 1 -1.87694,0.886998 10.618595,10.618595 0 0 1 -3.14891,0.56971 c -0.19038,0.09589 -0.41319,0.06346 -0.60356,0.06346 z m 0.19037,-14.637585 c -0.34972,0.06487 -0.73046,0.06487 -1.08019,0.191783 a 3.3181348,3.3181348 0 0 0 -1.78104,1.297358 c -0.22281,0.286265 -0.38216,0.634578 -0.54151,0.951866 -0.031,0.06205 0,0.15794 0,0.221398 0,0.03102 0.0959,0.03102 0.12692,0.03102 0.73187,-0.157939 1.43132,-0.315878 2.1632,-0.475228 l 2.09834,-0.475228 c 0.44561,-0.09448 0.85879,-0.188963 1.3044,-0.315878 0.19038,-0.06346 0.22281,-0.126916 0.0959,-0.253831 -0.66843,-0.696625 -1.43133,-1.140829 -2.38602,-1.171853 z M 0.06486791,16.348124 c 0,-4.213594 -0.03102378,-8.3961639 0,-12.6083477 0,-1.2353108 0.60496381,-2.2182007 1.62169789,-2.91482566 C 2.450879,0.28626492 3.3082636,0.0958917 4.2319263,0.0958917 H 14.885776 c 0.603554,-0.03102379 0.540096,0.03243396 0.540096,0.57111968 V 6.6221679 c 0,0.3483125 -0.03102,0.4117702 -0.41318,0.4117702 H 9.7964652 c -0.3497227,0 -0.6994454,0.031024 -0.9857103,0.1579393 C 8.1761775,7.4146846 7.9519601,7.9843941 7.9209364,8.5865376 7.8885024,9.5369935 7.8885024,10.487449 7.8885024,11.406882 v 0.537275 c 0,0.190373 0.095892,0.253831 0.253831,0.253831 h 3.4351786 c 0.445615,0 0.445615,0 0.445615,0.442794 v 6.049638 c 0,0.380747 -0.03243,0.413181 -0.413181,0.413181 H 8.1423334 c -0.253831,0 -0.286265,0.03102 -0.286265,0.284854 v 9.947354 c 0,0.190373 -0.063458,0.253831 -0.2538309,0.253831 H 0.22280718 C 0.03243396,29.58964 0,29.493748 0,29.335809 0.06345774,24.995299 0.06345774,20.687224 0.06345774,16.348124 Z M 63.60722,21.193476 v -5.006111 c 0,-0.284855 -0.06346,-0.348313 -0.349723,-0.348313 h -2.54395 c -0.253831,0 -0.286265,-0.03102 -0.286265,-0.284854 V 9.1872708 c 0,-0.2228071 0.06346,-0.2848547 0.286265,-0.2848547 h 2.512927 c 0.317288,0 0.349722,-0.063458 0.349722,-0.3497227 V 2.2182006 c 0,-0.2862649 0.03102,-0.3172887 0.317289,-0.3172887 h 7.060731 c 0.317289,0 0.349723,0.031024 0.349723,0.3483125 0,1.171853 0.03243,2.3761399 0.03243,3.5479929 0,0.9194321 0,1.8050202 0.03102,2.7244523 0,0.3483125 0.06346,0.3807465 0.41318,0.3807465 h 2.259096 c 0.253831,0 0.317289,0.062048 0.317289,0.3158785 v 6.3034694 c 0,0.253831 -0.06346,0.317288 -0.317289,0.317288 h -2.29012 c -0.318698,0 -0.349722,0.06346 -0.349722,0.348313 v 4.561906 c 0,0.380747 0,0.792517 0.222807,1.171853 0.221397,0.411771 0.540096,0.665602 1.016734,0.729059 0.191783,0.03243 0.41318,0.03243 0.604964,0.03243 h 2.161794 c 0.349722,0 0.382156,0.03102 0.382156,0.380747 v 6.144119 c 0,0.284855 -0.03243,0.348313 -0.318699,0.348313 h -7.887092 a 4.1416753,4.1416753 0 0 1 -2.7033,-0.950456 3.4323587,3.4323587 0 0 1 -1.302999,-2.755476 c 0.03102,-1.520166 0.03102,-3.074175 0.03102,-4.656388 z m 77.6624,8.712042 c -1.04916,0.06205 -2.06731,-0.126915 -3.05302,-0.380746 a 10.222337,10.222337 0 0 1 -2.79778,-1.298768 13.058193,13.058193 0 0 1 -3.37172,-3.232115 8.7205039,8.7205039 0 0 1 -1.33543,-2.723042 c -0.44562,-1.425684 -0.57253,-2.883802 -0.44562,-4.340509 0.12692,-1.489142 0.54151,-2.914826 1.33544,-4.213594 a 12.13171,12.13171 0 0 1 3.30826,-3.642475 9.3226474,9.3226474 0 0 1 2.60741,-1.3622261 11.336373,11.336373 0 0 1 5.34314,-0.4442042 c 0.66842,0.095892 1.33543,0.2538309 1.97142,0.4442042 0.92225,0.2848547 1.75002,0.7276487 2.54395,1.2663345 a 12.282598,12.282598 0 0 1 2.89508,2.9782836 c 0.0945,0.126915 0.0945,0.221397 -0.0634,0.317289 -1.40031,0.886998 -2.83163,1.773996 -4.23052,2.660994 -0.60355,0.380747 -1.20852,0.791107 -1.84451,1.170443 -0.31728,0.191783 -0.31728,0.191783 -0.57253,-0.09307 a 6.1427094,6.1427094 0 0 0 -0.82636,-0.761493 c -0.44561,-0.348313 -1.01814,-0.411771 -1.55824,-0.380747 -0.50907,0.03243 -0.98571,0.03243 -1.46376,0.222807 -0.69944,0.253831 -1.20851,0.696625 -1.49478,1.39325 -0.34972,0.855975 -0.34972,1.742973 -0.12691,2.629971 0.19037,0.823541 0.69944,1.424274 1.52721,1.710539 0.88982,0.317289 1.74862,0.380746 2.67087,0.126915 0.54009,-0.157939 0.95469,-0.507662 1.30441,-0.950456 0.031,-0.06346 0.0945,-0.09448 0.12691,-0.157939 0.0635,-0.09589 0.15935,-0.09589 0.25383,-0.03243 1.6217,1.044938 3.27583,2.091285 4.89753,3.136223 l 1.33685,0.855974 c 0.15793,0.09448 0.15793,0.188963 0.0634,0.315879 -0.98571,1.39466 -2.13077,2.566513 -3.59453,3.453511 -1.0816,0.634577 -2.25768,1.077372 -3.49722,1.235311 -0.60497,0.09448 -1.24095,0.126915 -1.84592,0.190373 -0.0635,-0.03243 -0.0635,-0.06346 -0.0635,-0.09589 z M 90.353953,13.27395 V 0.41318041 c 0,-0.34972267 0.03243,-0.38074645 0.380747,-0.38074645 h 6.997273 c 0.318699,0 0.349723,0.06345774 0.349723,0.38074645 V 20.623766 c 0,0.284855 0.03243,0.56971 0.06346,0.854564 0.09589,0.602144 0.604964,1.108396 1.208517,1.204287 0.253831,0.03102 0.509072,0.03102 0.795337,0.03102 h 5.18379 c 0.25383,0 0.28627,0.06346 0.28627,0.348313 v 6.241421 c 0,0.190373 -0.0635,0.284855 -0.28627,0.284855 H 93.85259 c -0.731879,0 -1.463759,-0.15794 -2.099746,-0.538686 a 2.6200997,2.6200997 0 0 1 -1.14506,-1.39325 c -0.253831,-0.665601 -0.317289,-1.331202 -0.317289,-2.027827 0.06346,-4.117703 0.06346,-8.235405 0.06346,-12.354517 z m 105.775597,7.253924 v -8.080285 c 0,-0.506252 0.0324,-1.043528 0.12832,-1.55119 0.25383,-1.1408288 0.88982,-1.9319353 2.03488,-2.281658 0.57253,-0.1889631 1.14506,-0.221397 1.71759,-0.221397 h 9.31842 c 0.31729,0 0.38074,0.063458 0.38074,0.3807464 V 14.91962 c 0,0.348313 -0.031,0.380747 -0.38074,0.380747 -1.1775,0 -2.32256,-0.03243 -3.49864,0 -0.38216,0 -0.7629,0.06205 -1.11262,0.188963 -0.54151,0.190373 -0.73188,0.665601 -0.79534,1.204287 -0.0324,0.188963 0,0.380746 0,0.569709 v 12.037229 c 0,0.190373 -0.0635,0.253831 -0.25524,0.253831 h -7.18624 c -0.25524,0 -0.3187,-0.06346 -0.3187,-0.284855 a 269.72784,269.72784 0 0 1 -0.0324,-8.743067 z M 152.14628,14.825139 V 0.38074645 C 152.14628,0.06345774 152.20974,0 152.52844,0 h 7.12419 c 0.28626,0 0.34972,0.06345774 0.34972,0.34831249 V 14.128514 c 0.031,0.06346 0.0635,0.126915 0.0635,0.190373 l 0.19037,-0.09448 c 0.19178,-0.222806 0.34972,-0.444203 0.54151,-0.698034 0.98571,-1.202878 1.93898,-2.407164 2.92469,-3.6100412 0.12833,-0.1903732 0.28627,-0.253831 0.54151,-0.253831 h 7.82363 c 0.0635,0 0.12692,0.031024 0.15935,0.094482 0.031,0.032434 -0.0324,0.1269154 -0.0649,0.1579392 -0.47664,0.602143 -0.98571,1.173263 -1.46235,1.773996 -1.46235,1.773997 -2.92611,3.580427 -4.38846,5.354423 -0.34972,0.442794 -0.69944,0.854565 -1.0816,1.297359 -0.12692,0.159349 -0.12692,0.253831 0,0.41318 1.04917,1.235311 2.09834,2.503055 3.14891,3.736956 1.303,1.552599 2.57498,3.074175 3.84836,4.625364 0.60356,0.729059 1.23955,1.458118 1.84451,2.185767 0.031,0.06487 0.0635,0.126915 0.0635,0.190373 -0.0635,0.03243 -0.12692,0.06346 -0.19179,0.06346 h -8.52308 a 0.45125505,0.45125505 0 0 1 -0.38074,-0.188963 c -1.30441,-1.5526 -2.57639,-3.136223 -3.8808,-4.688822 -0.28626,-0.348313 -0.57253,-0.665601 -0.82636,-1.015324 -0.0634,-0.06205 -0.15935,-0.09448 -0.2228,-0.156529 -0.0324,0.09448 -0.0635,0.157939 -0.0635,0.253831 v 5.510952 c 0,0.253831 -0.0324,0.284855 -0.34972,0.284855 h -7.12419 c -0.41318,0 -0.41318,0 -0.41318,-0.41177 -0.0324,-4.75228 -0.0324,-9.535584 -0.0324,-14.318887 z m -34.82279,15.111403 a 9.3367491,9.3367491 0 0 1 -2.9261,-0.41177 10.256181,10.256181 0 0 1 -2.73574,-1.267745 13.011657,13.011657 0 0 1 -2.7033,-2.407163 10.675002,10.675002 0 0 1 -1.55824,-2.503056 c -0.73047,-1.741562 -0.95327,-3.579016 -0.79533,-5.41647 a 10.223747,10.223747 0 0 1 0.60496,-2.724453 c 0.5401,-1.489141 1.39889,-2.78791 2.51293,-3.928739 a 11.543668,11.543668 0 0 1 3.1475,-2.2167906 c 0.57253,-0.253831 1.20852,-0.4442042 1.84451,-0.6021435 1.24095,-0.2848548 2.4819,-0.3807464 3.72144,-0.2848548 a 11.877879,11.877879 0 0 1 2.35358,0.4427941 9.3339287,9.3339287 0 0 1 2.22525,0.9828899 c 0.98712,0.5697099 1.81348,1.3297919 2.57638,2.1533329 0.70086,0.761493 1.27198,1.583623 1.71759,2.472031 0.34972,0.727649 0.63599,1.487732 0.79534,2.312683 0.31729,1.424273 0.31729,2.882391 0.12691,4.339099 a 9.8655636,9.8655636 0 0 1 -0.79533,2.660995 c -0.98571,2.122308 -2.57498,3.674908 -4.48435,4.941242 a 9.8895365,9.8895365 0 0 1 -2.79778,1.173264 c -0.95469,0.157939 -1.84451,0.284854 -2.83022,0.284854 z m 0.31729,-14.129924 c -0.63458,0 -1.24095,0.126916 -1.78105,0.444205 -0.82636,0.475228 -1.30299,1.23531 -1.49478,2.154742 -0.12691,0.665602 -0.0635,1.362227 0.15935,2.027828 0.28627,0.82354 0.8588,1.329792 1.68516,1.520165 0.73188,0.190374 1.49478,0.190374 2.25909,0.03102 0.98571,-0.188963 1.65272,-0.760083 1.90797,-1.710539 0.28626,-0.981479 0.28626,-1.995393 -0.12692,-2.945849 a 2.0250071,2.0250071 0 0 0 -1.33684,-1.204287 c -0.41318,-0.157939 -0.8588,-0.221397 -1.27198,-0.315878 z m -81.956377,3.516969 c 0.03243,0.698036 -0.126915,1.710539 -0.41318,2.693429 -0.380746,1.297358 -0.98712,2.439598 -1.813481,3.515559 a 12.471562,12.471562 0 0 1 -2.638432,2.534079 12.347466,12.347466 0 0 1 -2.195638,1.204287 c -1.55824,0.602144 -3.179938,0.792517 -4.801636,0.665601 a 10.33092,10.33092 0 0 1 -2.766757,-0.634577 c -2.13077,-0.823541 -3.752468,-2.216791 -5.152769,-3.959763 a 8.7825515,8.7825515 0 0 1 -1.335433,-2.37473 c -0.286265,-0.761493 -0.507662,-1.552599 -0.603553,-2.37614 -0.09589,-0.792517 -0.15935,-1.616057 -0.09589,-2.407164 0.09589,-1.109805 0.318699,-2.185766 0.762903,-3.232114 0.699445,-1.741562 1.875529,-3.167246 3.27583,-4.371533 a 9.9558146,9.9558146 0 0 1 2.54395,-1.5511894 C 22.19893,8.2678387 24.044845,8.0774655 25.921784,8.2368149 a 9.885306,9.885306 0 0 1 2.511517,0.5386857 10.590392,10.590392 0 0 1 3.497227,2.0898754 11.202407,11.202407 0 0 1 2.449468,3.009307 c 0.318699,0.602143 0.57253,1.204287 0.795337,1.837454 0.380747,0.98289 0.509072,2.122309 0.509072,3.61145 z M 21.564351,19.038733 c 0,0.126915 0.03102,0.380746 0.06346,0.634577 0.159349,1.139419 0.762903,1.931936 1.875528,2.216791 0.987121,0.253831 1.972831,0.284854 2.926107,-0.09448 0.73188,-0.286265 1.208518,-0.855974 1.400301,-1.585033 0.221397,-0.760083 0.221397,-1.520166 0.06346,-2.312682 -0.286265,-1.170443 -1.081602,-1.805021 -2.13077,-1.96296 -0.827771,-0.126915 -1.654132,-0.126915 -2.481903,0.157939 a 2.4819028,2.4819028 0 0 0 -1.302999,1.044938 c -0.349722,0.538686 -0.41318,1.140829 -0.41318,1.900912 z m 26.618407,10.897809 c -0.953276,0.03102 -1.938986,-0.126915 -2.926107,-0.41177 A 10.226568,10.226568 0 0 1 42.45887,28.226004 12.307982,12.307982 0 0 1 38.926389,24.741468 10.153239,10.153239 0 0 1 37.750306,22.301871 c -0.445615,-1.39466 -0.57253,-2.820344 -0.476639,-4.244618 0.06346,-0.98289 0.286265,-1.900912 0.603554,-2.820344 0.57253,-1.520165 1.463759,-2.818934 2.608818,-3.990787 0.922253,-0.919432 1.938987,-1.6781047 3.147504,-2.1857666 a 12.007615,12.007615 0 0 1 2.766758,-0.7925167 c 0.860205,-0.1269155 1.748613,-0.1903732 2.608818,-0.094482 0.57253,0.031024 1.14365,0.1579393 1.716179,0.2848548 0.445615,0.094482 0.891229,0.221397 1.336844,0.3807465 0.540095,0.221397 1.112625,0.4738178 1.621697,0.7911065 1.176084,0.6656015 2.12936,1.5836235 2.989565,2.6299715 0.699445,0.854564 1.271975,1.773997 1.652722,2.78791 a 10.784996,10.784996 0 0 1 0.700855,5.0047 c -0.126915,1.171853 -0.382156,2.312683 -0.891228,3.390054 a 11.535207,11.535207 0 0 1 -2.926107,3.832848 10.859735,10.859735 0 0 1 -3.084047,1.964369 10.297076,10.297076 0 0 1 -3.944251,0.696625 z m 0.253831,-7.856068 c 0.126916,0 0.255241,-0.03243 0.414591,-0.03243 0.57253,-0.06346 1.114036,-0.190373 1.55824,-0.538686 0.540096,-0.41177 0.826361,-0.98148 0.953276,-1.647081 0.126916,-0.82354 0.126916,-1.616057 -0.157939,-2.407163 -0.318699,-0.888409 -0.98712,-1.362227 -1.875529,-1.520166 -0.860205,-0.159349 -1.719,-0.159349 -2.577794,0.126916 -0.857385,0.284854 -1.398891,0.885588 -1.621698,1.772586 a 4.3673028,4.3673028 0 0 0 0,2.2182 c 0.126915,0.538686 0.380746,0.98148 0.827771,1.329793 0.730469,0.602143 1.589264,0.665601 2.480492,0.698035 z"
     style="stroke-width:1.41017" />
</svg>
