<?xml version="1.0" encoding="UTF-8" standalone="no"?><!DOCTYPE svg PUBLIC "-//W3C//DTD SVG 1.1//EN" "http://www.w3.org/Graphics/SVG/1.1/DTD/svg11.dtd"><svg width="100%" height="100%" viewBox="0 0 284 284" version="1.1" xmlns="http://www.w3.org/2000/svg" xmlns:xlink="http://www.w3.org/1999/xlink" xml:space="preserve" xmlns:serif="http://www.serif.com/" style="fill-rule:evenodd;clip-rule:evenodd;stroke-linejoin:round;stroke-miterlimit:2;"><path d="M141.667,0l-141.667,141.667l141.667,141.666l141.666,-141.666l-141.666,-141.667Zm119.166,141.667l-57.5,57.5c1.25,-2.917 2.084,-6.25 2.084,-9.584c-0,-10.833 -7.5,-20.416 -22.084,-23.333l-10.416,-2.083c-5.417,-0.834 -7.5,-3.75 -7.5,-7.5c-0,-4.167 4.166,-8.334 10.416,-8.334c9.167,0 12.084,5.834 12.917,9.167l15,-6.25c-2.5,-8.75 -10,-18.333 -27.5,-18.333c-6.667,-0 -12.5,2.083 -17.5,5.416c5.833,-7.916 12.083,-15.833 18.75,-22.5c19.583,-19.583 30.417,-25.416 32.917,-26.25l50.416,52.084Zm-63.333,-63.334c-2.083,1.25 -13.333,7.084 -32.917,26.25c-10,10 -18.75,22.5 -27.5,35l-9.583,-19.583c7.917,-4.583 11.25,-13.333 11.25,-21.667c0,-13.75 -9.583,-24.166 -25,-24.166l-23.75,-0l51.667,-51.667l55.833,55.833Zm-76.25,20.417c0,5.417 -3.75,9.167 -10.833,9.167l-10,-0l-0,-18.75l10,-0c7.083,-0 10.833,3.75 10.833,9.583Zm-98.75,42.917l60.417,-60.417l-0,70.417l17.083,-0l0,-28.75l10.417,-0l15.416,32.083c-4.583,5.833 -9.166,11.25 -14.166,16.25c-19.584,19.583 -31.25,25.417 -33.334,26.25l-55.833,-55.833Zm68.333,67.916c1.667,-0.833 13.75,-6.666 33.334,-26.25c9.583,-9.583 17.5,-20.416 25.416,-31.25c-0.416,2.084 -0.833,4.167 -0.833,6.667c0,11.25 7.917,20 20.833,22.5l10.417,2.083c5,0.834 8.333,3.75 8.333,7.917c0,4.583 -4.166,7.917 -10.833,7.917c-10.417,-0 -15,-5.834 -15.833,-12.917l-15.417,6.25c2.5,10.417 11.667,21.667 30.833,21.667c5.834,-0 10.417,-1.25 14.584,-3.334l-49.584,49.584l-51.25,-50.834Z" style="fill:#b5b9bc;fill-rule:nonzero;"/></svg>