<?xml version="1.0" encoding="UTF-8" standalone="no"?>
<!-- Created with Inkscape (http://www.inkscape.org/) -->

<svg
   version="1.0"
   width="141.54048"
   height="30"
   id="svg2"
   sodipodi:docname="stihl.svg"
   inkscape:version="1.3.2 (091e20e, 2023-11-25)"
   xmlns:inkscape="http://www.inkscape.org/namespaces/inkscape"
   xmlns:sodipodi="http://sodipodi.sourceforge.net/DTD/sodipodi-0.dtd"
   xmlns="http://www.w3.org/2000/svg"
   xmlns:svg="http://www.w3.org/2000/svg">
  <sodipodi:namedview
     id="namedview1"
     pagecolor="#ffffff"
     bordercolor="#000000"
     borderopacity="0.25"
     inkscape:showpageshadow="2"
     inkscape:pageopacity="0.0"
     inkscape:pagecheckerboard="0"
     inkscape:deskcolor="#d1d1d1"
     inkscape:zoom="0.81039298"
     inkscape:cx="441.144"
     inkscape:cy="89.462769"
     inkscape:window-width="1792"
     inkscape:window-height="1092"
     inkscape:window-x="0"
     inkscape:window-y="28"
     inkscape:window-maximized="0"
     inkscape:current-layer="svg2" />
  <defs
     id="defs4" />
  <g
     transform="matrix(0.16700349,0,0,0.16700349,150.11676,6.192853)"
     id="layer1">
    <g
       transform="translate(35.44754,35.43742)"
       id="g2688">
      <path
         d="m -208.4153,-72.519597 h 54.86711 l -49.41893,135.805731 h 116.165719 l -15.952519,43.831236 h -171.03284 z m -209.34945,0 h 52.41543 l -23.09495,63.4579519 h 65.28509 l 23.09494,-63.4579519 h 53.95023 l -65.37811,179.636967 h -53.94357 l 26.88209,-73.875929 h -65.28508 l -26.88874,73.875929 h -52.41543 z M -576.31994,107.11737 h 54.86711 l 65.37146,-179.636967 h -54.86711 z m -128.12513,0 h 54.56148 l 49.41894,-135.79909 h 56.70753 l 15.95252,-43.837877 h -167.35864 l -15.95252,43.837877 h 56.09627 z m -5.73387,-179.636967 h -130.57681 c -18.65004,0 -31.01474,11.946121 -36.82169,27.898643 l -17.28799,47.5120736 c -7.70053,21.1548654 3.1626,36.7884704 24.00519,36.7884704 h 68.04903 c 2.75731,0 4.81699,2.757308 3.70078,5.82689 l -4.3519,11.952764 c -1.1893,3.275549 -5.20899,5.82689 -7.93972,5.82689 h -106.97691 l -15.95252,43.831236 h 137.93185 c 15.21502,0 28.62285,-7.04941 36.54263,-28.815534 l 16.42426,-45.13348 c 7.7869,-21.387409 -3.47487,-36.7153848 -22.50362,-36.7153848 h -68.34802 c -3.78715,0 -5.12926,-2.7573081 -3.9001,-6.125875 l 4.3519,-11.9594092 c 1.44841,-3.986469 4.44491,-7.049407 9.3084,-7.049407 h 98.39272 l 15.95252,-43.837877"
         id="path2424"
         style="fill:#f46717;fill-opacity:1;fill-rule:evenodd;stroke:none" />
    </g>
  </g>
</svg>
